<mxfile host="app.diagrams.net" agent="Mozilla/5.0 (Windows NT 10.0; Win64; x64) AppleWebKit/537.36 (KHTML, like Gecko) Chrome/135.0.0.0 Safari/537.36 Edg/135.0.0.0" version="26.2.8">
  <diagram name="Page-1" id="br2ZY6DhGDiwCSdYPVaq">
    <mxGraphModel dx="1175" dy="758" grid="1" gridSize="10" guides="1" tooltips="1" connect="1" arrows="1" fold="1" page="1" pageScale="1" pageWidth="827" pageHeight="1169" math="0" shadow="0">
      <root>
        <mxCell id="0" />
        <mxCell id="1" parent="0" />
        <mxCell id="3BdFC592ohsCOy7IGQRM-1" value="" style="whiteSpace=wrap;html=1;" vertex="1" parent="1">
          <mxGeometry x="220" y="130" width="370" height="750" as="geometry" />
        </mxCell>
        <mxCell id="3BdFC592ohsCOy7IGQRM-2" value="Système" style="text;html=1;align=center;verticalAlign=middle;whiteSpace=wrap;rounded=0;" vertex="1" parent="1">
          <mxGeometry x="370" y="140" width="60" height="30" as="geometry" />
        </mxCell>
        <mxCell id="3BdFC592ohsCOy7IGQRM-15" style="edgeStyle=orthogonalEdgeStyle;rounded=0;orthogonalLoop=1;jettySize=auto;html=1;exitX=0.5;exitY=0.5;exitDx=0;exitDy=0;exitPerimeter=0;" edge="1" parent="1" source="3BdFC592ohsCOy7IGQRM-3">
          <mxGeometry relative="1" as="geometry">
            <mxPoint x="40" y="479.9999999999999" as="targetPoint" />
          </mxGeometry>
        </mxCell>
        <mxCell id="3BdFC592ohsCOy7IGQRM-20" style="edgeStyle=orthogonalEdgeStyle;rounded=0;orthogonalLoop=1;jettySize=auto;html=1;exitX=0.5;exitY=0.5;exitDx=0;exitDy=0;exitPerimeter=0;endArrow=none;startFill=0;" edge="1" parent="1" source="3BdFC592ohsCOy7IGQRM-3" target="3BdFC592ohsCOy7IGQRM-17">
          <mxGeometry relative="1" as="geometry" />
        </mxCell>
        <mxCell id="3BdFC592ohsCOy7IGQRM-3" value="Recruteur" style="shape=umlActor;verticalLabelPosition=bottom;verticalAlign=top;html=1;outlineConnect=0;" vertex="1" parent="1">
          <mxGeometry x="90" y="190" width="30" height="60" as="geometry" />
        </mxCell>
        <mxCell id="3BdFC592ohsCOy7IGQRM-11" style="edgeStyle=orthogonalEdgeStyle;rounded=0;orthogonalLoop=1;jettySize=auto;html=1;endArrow=none;startFill=0;" edge="1" parent="1" source="3BdFC592ohsCOy7IGQRM-7" target="3BdFC592ohsCOy7IGQRM-9">
          <mxGeometry relative="1" as="geometry" />
        </mxCell>
        <mxCell id="3BdFC592ohsCOy7IGQRM-13" style="edgeStyle=orthogonalEdgeStyle;rounded=0;orthogonalLoop=1;jettySize=auto;html=1;entryX=0;entryY=0.5;entryDx=0;entryDy=0;endArrow=none;startFill=0;" edge="1" parent="1" source="3BdFC592ohsCOy7IGQRM-7" target="3BdFC592ohsCOy7IGQRM-12">
          <mxGeometry relative="1" as="geometry" />
        </mxCell>
        <mxCell id="3BdFC592ohsCOy7IGQRM-7" value="Visiteur" style="shape=umlActor;verticalLabelPosition=bottom;verticalAlign=top;html=1;outlineConnect=0;" vertex="1" parent="1">
          <mxGeometry x="20" y="490" width="30" height="60" as="geometry" />
        </mxCell>
        <mxCell id="3BdFC592ohsCOy7IGQRM-16" style="edgeStyle=orthogonalEdgeStyle;rounded=0;orthogonalLoop=1;jettySize=auto;html=1;exitX=0.5;exitY=0.5;exitDx=0;exitDy=0;exitPerimeter=0;" edge="1" parent="1" source="3BdFC592ohsCOy7IGQRM-8">
          <mxGeometry relative="1" as="geometry">
            <mxPoint x="40" y="580" as="targetPoint" />
          </mxGeometry>
        </mxCell>
        <mxCell id="3BdFC592ohsCOy7IGQRM-26" style="edgeStyle=orthogonalEdgeStyle;rounded=0;orthogonalLoop=1;jettySize=auto;html=1;exitX=0.5;exitY=0.5;exitDx=0;exitDy=0;exitPerimeter=0;endArrow=none;startFill=0;" edge="1" parent="1" source="3BdFC592ohsCOy7IGQRM-8" target="3BdFC592ohsCOy7IGQRM-23">
          <mxGeometry relative="1" as="geometry" />
        </mxCell>
        <mxCell id="3BdFC592ohsCOy7IGQRM-8" value="Candidat" style="shape=umlActor;verticalLabelPosition=bottom;verticalAlign=top;html=1;outlineConnect=0;" vertex="1" parent="1">
          <mxGeometry x="90" y="750" width="30" height="60" as="geometry" />
        </mxCell>
        <mxCell id="3BdFC592ohsCOy7IGQRM-9" value="&lt;span style=&quot;border-bottom: 1px dotted&quot;&gt;S&#39;enregistrer&lt;/span&gt;" style="ellipse;whiteSpace=wrap;html=1;align=center;" vertex="1" parent="1">
          <mxGeometry x="270" y="460" width="100" height="40" as="geometry" />
        </mxCell>
        <mxCell id="3BdFC592ohsCOy7IGQRM-12" value="&lt;span style=&quot;border-bottom: 1px dotted&quot;&gt;Consulter des offres&lt;/span&gt;" style="ellipse;whiteSpace=wrap;html=1;align=center;" vertex="1" parent="1">
          <mxGeometry x="270" y="540" width="100" height="40" as="geometry" />
        </mxCell>
        <mxCell id="3BdFC592ohsCOy7IGQRM-30" style="edgeStyle=orthogonalEdgeStyle;rounded=0;orthogonalLoop=1;jettySize=auto;html=1;dashed=1;" edge="1" parent="1" source="3BdFC592ohsCOy7IGQRM-17" target="3BdFC592ohsCOy7IGQRM-18">
          <mxGeometry relative="1" as="geometry" />
        </mxCell>
        <mxCell id="3BdFC592ohsCOy7IGQRM-17" value="&lt;span style=&quot;border-bottom: 1px dotted&quot;&gt;Créer une entreprise&lt;/span&gt;" style="ellipse;whiteSpace=wrap;html=1;align=center;" vertex="1" parent="1">
          <mxGeometry x="270" y="210" width="100" height="40" as="geometry" />
        </mxCell>
        <mxCell id="3BdFC592ohsCOy7IGQRM-31" style="edgeStyle=orthogonalEdgeStyle;rounded=0;orthogonalLoop=1;jettySize=auto;html=1;entryX=0.5;entryY=0;entryDx=0;entryDy=0;dashed=1;" edge="1" parent="1" source="3BdFC592ohsCOy7IGQRM-18" target="3BdFC592ohsCOy7IGQRM-19">
          <mxGeometry relative="1" as="geometry" />
        </mxCell>
        <mxCell id="3BdFC592ohsCOy7IGQRM-18" value="&lt;span style=&quot;border-bottom: 1px dotted&quot;&gt;Créer des offres&lt;/span&gt;" style="ellipse;whiteSpace=wrap;html=1;align=center;" vertex="1" parent="1">
          <mxGeometry x="480" y="210" width="100" height="40" as="geometry" />
        </mxCell>
        <mxCell id="3BdFC592ohsCOy7IGQRM-19" value="&lt;span style=&quot;border-bottom: 1px dotted&quot;&gt;Consulter les candidats postulant&lt;/span&gt;" style="ellipse;whiteSpace=wrap;html=1;align=center;" vertex="1" parent="1">
          <mxGeometry x="380" y="330" width="100" height="60" as="geometry" />
        </mxCell>
        <mxCell id="3BdFC592ohsCOy7IGQRM-29" style="edgeStyle=orthogonalEdgeStyle;rounded=0;orthogonalLoop=1;jettySize=auto;html=1;exitX=1;exitY=0.5;exitDx=0;exitDy=0;entryX=0;entryY=0.5;entryDx=0;entryDy=0;dashed=1;" edge="1" parent="1" source="3BdFC592ohsCOy7IGQRM-23" target="3BdFC592ohsCOy7IGQRM-24">
          <mxGeometry relative="1" as="geometry" />
        </mxCell>
        <mxCell id="3BdFC592ohsCOy7IGQRM-23" value="&lt;span style=&quot;border-bottom: 1px dotted&quot;&gt;Postuler a une offre&lt;/span&gt;" style="ellipse;whiteSpace=wrap;html=1;align=center;" vertex="1" parent="1">
          <mxGeometry x="270" y="760" width="100" height="40" as="geometry" />
        </mxCell>
        <mxCell id="3BdFC592ohsCOy7IGQRM-24" value="&lt;span style=&quot;border-bottom: 1px dotted&quot;&gt;Voir les entreprise auquel il a postuler&lt;/span&gt;" style="ellipse;whiteSpace=wrap;html=1;align=center;" vertex="1" parent="1">
          <mxGeometry x="414" y="640" width="110" height="70" as="geometry" />
        </mxCell>
        <mxCell id="3BdFC592ohsCOy7IGQRM-32" value="1" style="text;html=1;align=center;verticalAlign=middle;whiteSpace=wrap;rounded=0;" vertex="1" parent="1">
          <mxGeometry x="160" y="200" width="40" height="20" as="geometry" />
        </mxCell>
        <mxCell id="3BdFC592ohsCOy7IGQRM-33" value="1...*" style="text;html=1;align=center;verticalAlign=middle;whiteSpace=wrap;rounded=0;" vertex="1" parent="1">
          <mxGeometry x="160" y="760" width="40" height="20" as="geometry" />
        </mxCell>
        <mxCell id="3BdFC592ohsCOy7IGQRM-34" value="n...*" style="text;html=1;align=center;verticalAlign=middle;whiteSpace=wrap;rounded=0;" vertex="1" parent="1">
          <mxGeometry x="374" y="210" width="40" height="20" as="geometry" />
        </mxCell>
        <mxCell id="3BdFC592ohsCOy7IGQRM-35" value="n...*" style="text;html=1;align=center;verticalAlign=middle;whiteSpace=wrap;rounded=0;" vertex="1" parent="1">
          <mxGeometry x="374" y="780" width="40" height="20" as="geometry" />
        </mxCell>
        <mxCell id="3BdFC592ohsCOy7IGQRM-36" value="&amp;lt;&amp;lt;extend&amp;gt;&amp;gt;" style="text;html=1;align=center;verticalAlign=middle;whiteSpace=wrap;rounded=0;" vertex="1" parent="1">
          <mxGeometry x="390" y="730" width="70" height="20" as="geometry" />
        </mxCell>
        <mxCell id="3BdFC592ohsCOy7IGQRM-37" value="&amp;lt;&amp;lt;extend&amp;gt;&amp;gt;" style="text;html=1;align=center;verticalAlign=middle;whiteSpace=wrap;rounded=0;" vertex="1" parent="1">
          <mxGeometry x="440" y="270" width="70" height="20" as="geometry" />
        </mxCell>
        <mxCell id="3BdFC592ohsCOy7IGQRM-38" value="&amp;lt;&amp;lt;extend&amp;gt;&amp;gt;" style="text;html=1;align=center;verticalAlign=middle;whiteSpace=wrap;rounded=0;" vertex="1" parent="1">
          <mxGeometry x="390" y="230" width="70" height="20" as="geometry" />
        </mxCell>
      </root>
    </mxGraphModel>
  </diagram>
</mxfile>
